<svg width="220" height="220" viewBox="0 0 220 220" fill="none" xmlns="http://www.w3.org/2000/svg">
  <defs>
    <linearGradient id="bg" x1="24" y1="20" x2="196" y2="200" gradientUnits="userSpaceOnUse">
      <stop stop-color="#22D3EE"/>
      <stop offset="1" stop-color="#A855F7"/>
    </linearGradient>
    <linearGradient id="line" x1="52" y1="60" x2="168" y2="160" gradientUnits="userSpaceOnUse">
      <stop stop-color="#67E8F9"/>
      <stop offset="1" stop-color="#F0ABFC"/>
    </linearGradient>
  </defs>
  <rect x="16" y="16" width="188" height="188" rx="40" fill="#0F172A"/>
  <rect x="20" y="20" width="180" height="180" rx="36" fill="url(#bg)" fill-opacity="0.2"/>
  <path d="M58 146C58 121.699 77.6995 102 102 102H118C142.301 102 162 121.699 162 146V154H58V146Z" fill="#0B1120"/>
  <path d="M66 154V146C66 126.117 82.1178 110 102 110H118C137.882 110 154 126.117 154 146V154" stroke="url(#line)" stroke-width="8" stroke-linecap="round"/>
  <circle cx="110" cy="86" r="22" fill="#0B1120" stroke="url(#line)" stroke-width="8"/>
  <path d="M79 65L91 53" stroke="#22D3EE" stroke-width="6" stroke-linecap="round"/>
  <path d="M141 53L129 65" stroke="#A855F7" stroke-width="6" stroke-linecap="round"/>
  <circle cx="86" cy="85" r="3.5" fill="#22D3EE"/>
  <circle cx="134" cy="85" r="3.5" fill="#A855F7"/>
  <rect x="84" y="130" width="52" height="8" rx="4" fill="#111827"/>
  <path d="M92 177H128" stroke="#CBD5E1" stroke-opacity="0.7" stroke-width="5" stroke-linecap="round"/>
</svg>
